<svg width="37" height="33" viewBox="0 0 37 33" fill="none" xmlns="http://www.w3.org/2000/svg">
<path d="M33.3441 32.9122H3.48371C1.57044 32.9122 0 31.1345 0 28.9687V3.94344C0 1.77768 1.57044 0 3.48371 0H33.3441C35.2574 0 36.8278 1.77768 36.8278 3.94344V28.9687C36.8278 31.1345 35.2574 32.9122 33.3441 32.9122Z" fill="#F6C859"/>
<path d="M14.1672 28.5204C14.0124 28.5204 13.8575 28.4203 13.7912 28.2575C13.6806 28.0197 13.769 27.7317 13.9792 27.6065C14.5985 27.2435 15.439 26.58 15.9256 25.4157C16.545 23.9385 16.3791 22.3361 16.1247 22.1984C16.0583 22.1608 15.804 22.311 15.6491 22.3987C15.251 22.6365 14.687 22.9495 14.0455 22.6991C13.4151 22.4488 13.1055 21.8103 12.9617 21.5098C11.9995 19.5068 11.7009 14.299 12.7184 11.7075C13.0612 10.8437 13.5147 10.343 14.0898 10.1928C14.6759 10.0425 15.1515 10.3179 15.5275 10.5433C15.8372 10.7311 16.003 10.8062 16.0915 10.7436C16.4897 10.4682 16.4786 8.81568 15.9256 7.5012C15.439 6.33694 14.5985 5.67344 13.9792 5.31039C13.769 5.1852 13.6916 4.89726 13.7912 4.6594C13.9018 4.42154 14.1561 4.33391 14.3663 4.44658C15.0962 4.87223 16.1026 5.67344 16.6887 7.08807C17.2749 8.47767 17.5514 10.8688 16.5228 11.5698C16.003 11.9204 15.5164 11.6324 15.1183 11.4071C14.8197 11.2318 14.5432 11.0691 14.2667 11.1442C13.8907 11.2443 13.6363 11.7326 13.4815 12.1207C12.5857 14.3741 12.8401 19.3065 13.6916 21.0717C13.8354 21.3721 14.0124 21.6976 14.311 21.8103C14.5985 21.923 14.8639 21.7853 15.251 21.5599C15.627 21.3471 16.0473 21.0967 16.4897 21.3471C17.4408 21.8729 17.3855 24.2014 16.6887 25.8539C16.1026 27.256 15.0962 28.0697 14.3663 28.4954C14.2999 28.5079 14.2335 28.5204 14.1672 28.5204Z" fill="#7D662D"/>
<path d="M12.8951 12.5812H5.21989C4.98764 12.5812 4.78857 12.3684 4.78857 12.093C4.78857 11.8175 4.97658 11.6047 5.21989 11.6047H12.8951C13.1274 11.6047 13.3264 11.8175 13.3264 12.093C13.3264 12.3684 13.1274 12.5812 12.8951 12.5812Z" fill="#7D662D"/>
<path d="M12.8951 21.2836H5.21989C4.98764 21.2836 4.78857 21.0707 4.78857 20.7953C4.78857 20.5199 4.97658 20.3071 5.21989 20.3071H12.8951C13.1274 20.3071 13.3264 20.5199 13.3264 20.7953C13.3264 21.0707 13.1274 21.2836 12.8951 21.2836Z" fill="#7D662D"/>
<path d="M23.1251 28.5176C23.0588 28.5176 22.9924 28.5051 22.926 28.4675C22.1961 28.0419 21.1897 27.2407 20.6036 25.826C19.9068 24.1736 19.8515 21.845 20.8026 21.3192C21.245 21.0814 21.6653 21.3192 22.0413 21.5321C22.4284 21.7574 22.6938 21.8951 22.9813 21.7824C23.3021 21.6572 23.4901 21.2692 23.6007 21.0438C24.4522 19.2787 24.7066 14.3587 23.8108 12.0928C23.656 11.7047 23.3905 11.2165 23.0256 11.1163C22.7933 11.0538 22.6496 10.7908 22.7049 10.5405C22.7602 10.2776 22.9924 10.1274 23.2136 10.1774C23.7887 10.3277 24.2421 10.8409 24.585 11.7047C25.6024 14.2961 25.3149 19.504 24.3416 21.507C24.1979 21.8075 23.8882 22.4459 23.2578 22.6963C22.6164 22.9467 22.0524 22.6337 21.6542 22.3959C21.4994 22.3082 21.234 22.158 21.1787 22.1956C20.9243 22.3333 20.7584 23.9357 21.3777 25.4129C21.8643 26.5772 22.7049 27.2407 23.3242 27.6037C23.5343 27.7289 23.6117 28.0169 23.5122 28.2547C23.4348 28.4175 23.2799 28.5176 23.1251 28.5176Z" fill="#7D662D"/>
<path d="M21.4221 10.6542C21.2451 10.6542 21.0792 10.529 21.0129 10.3287C20.0949 7.22406 22.2405 4.83294 22.9261 4.43234C23.1363 4.30715 23.3906 4.40731 23.5012 4.64517C23.6118 4.88303 23.5234 5.17095 23.3132 5.29614C23.0036 5.47141 21.035 7.3868 21.8202 10.0283C21.8976 10.2787 21.776 10.5541 21.5548 10.6417C21.5105 10.6417 21.4663 10.6542 21.4221 10.6542Z" fill="#7D662D"/>
<path d="M32.0831 12.5812H24.4079C24.1756 12.5812 23.9766 12.3684 23.9766 12.093C23.9766 11.8175 24.1646 11.6047 24.4079 11.6047H32.0831C32.3154 11.6047 32.5144 11.8175 32.5144 12.093C32.5144 12.3684 32.3264 12.5812 32.0831 12.5812Z" fill="#7D662D"/>
<path d="M32.0831 21.2836H24.4079C24.1756 21.2836 23.9766 21.0707 23.9766 20.7953C23.9766 20.5199 24.1646 20.3071 24.4079 20.3071H32.0831C32.3154 20.3071 32.5144 20.5199 32.5144 20.7953C32.5144 21.0707 32.3264 21.2836 32.0831 21.2836Z" fill="#7D662D"/>
</svg>
