<svg width="45" height="50" viewBox="0 0 45 50" fill="none" xmlns="http://www.w3.org/2000/svg">
<path d="M15 36.25C13.25 36.25 11.7708 35.6458 10.5625 34.4375C9.35417 33.2292 8.75 31.75 8.75 30C8.75 28.25 9.35417 26.7708 10.5625 25.5625C11.7708 24.3542 13.25 23.75 15 23.75C16.75 23.75 18.2292 24.3542 19.4375 25.5625C20.6458 26.7708 21.25 28.25 21.25 30C21.25 31.75 20.6458 33.2292 19.4375 34.4375C18.2292 35.6458 16.75 36.25 15 36.25ZM5 50C3.625 50 2.44792 49.5104 1.46875 48.5312C0.489583 47.5521 0 46.375 0 45V10C0 8.625 0.489583 7.44792 1.46875 6.46875C2.44792 5.48958 3.625 5 5 5H7.5V0H12.5V5H32.5V0H37.5V5H40C41.375 5 42.5521 5.48958 43.5312 6.46875C44.5104 7.44792 45 8.625 45 10V45C45 46.375 44.5104 47.5521 43.5312 48.5312C42.5521 49.5104 41.375 50 40 50H5ZM5 45H40V20H5V45ZM5 15H40V10H5V15Z" fill="#BB86FC"/>
</svg>
