<svg width="57" height="57" viewBox="0 0 57 57" fill="none" xmlns="http://www.w3.org/2000/svg">
<path d="M20.9375 38.875L28.25 34.4375L35.5625 38.875L33.625 30.5625L40.125 24.9375L31.5625 24.25L28.25 16.375L24.9375 24.25L16.375 24.9375L22.875 30.5625L20.9375 38.875ZM28.25 56.5L19.875 48.25H8.25V36.625L0 28.25L8.25 19.875V8.25H19.875L28.25 0L36.625 8.25H48.25V19.875L56.5 28.25L48.25 36.625V48.25H36.625L28.25 56.5ZM28.25 49.5L34.5 43.25H43.25V34.5L49.5 28.25L43.25 22V13.25H34.5L28.25 7L22 13.25H13.25V22L7 28.25L13.25 34.5V43.25H22L28.25 49.5Z" fill="#03DAC6"/>
</svg>
